<?xml version="1.0" standalone="no"?>
<!DOCTYPE svg PUBLIC "-//W3C//DTD SVG 20010904//EN"
 "http://www.w3.org/TR/2001/REC-SVG-20010904/DTD/svg10.dtd">
<svg version="1.0" xmlns="http://www.w3.org/2000/svg"
 width="128.000000pt" height="128.000000pt" viewBox="0 0 128.000000 128.000000"
 preserveAspectRatio="xMidYMid meet">

<g transform="translate(0.000000,128.000000) scale(0.100000,-0.100000)"
fill="#000000" stroke="none">
<path d="M388 870 c-27 -32 -48 -63 -48 -69 0 -6 38 -39 85 -75 91 -68 91 -68
13 -82 -21 -3 -38 -9 -38 -13 0 -9 289 -123 300 -119 6 3 -49 278 -58 288 -2
3 -12 -6 -21 -19 -47 -71 -40 -73 -115 43 -37 58 -68 106 -69 105 -1 0 -23
-26 -49 -59z"/>
<path d="M1076 698 c-3 -13 -6 -41 -6 -63 -1 -51 -32 -121 -58 -129 -11 -4
-46 2 -78 14 -86 30 -126 27 -158 -11 -14 -17 -29 -48 -32 -68 l-6 -38 -31 15
c-18 9 -53 16 -78 16 -38 0 -56 -7 -99 -38 -109 -78 -139 -79 -264 -6 -38 22
-71 39 -73 37 -2 -2 23 -58 54 -123 l58 -119 72 -3 c92 -4 122 11 167 83 38
59 75 89 103 83 15 -3 56 -52 65 -79 2 -7 24 -8 61 -4 l57 7 0 73 c0 120 11
127 100 70 98 -62 162 -65 213 -7 18 19 17 24 -19 163 -20 79 -37 145 -39 147
-1 1 -5 -8 -9 -20z"/>
</g>
</svg>
